<?xml version="1.0" standalone="no"?>
<!DOCTYPE svg PUBLIC "-//W3C//DTD SVG 20010904//EN"
 "http://www.w3.org/TR/2001/REC-SVG-20010904/DTD/svg10.dtd">
<svg version="1.0" xmlns="http://www.w3.org/2000/svg"
 width="1280.000000pt" height="1108.000000pt" viewBox="0 0 1280.000000 1108.000000"
 preserveAspectRatio="xMidYMid meet">
<metadata>
Created by potrace 1.15, written by Peter Selinger 2001-2017
</metadata>
<g transform="translate(0.000000,1108.000000) scale(0.100000,-0.100000)"
fill="#000000" stroke="none">
<path d="M12230 10940 c-190 -75 -714 -284 -1165 -463 -451 -179 -1193 -474
-1650 -655 -456 -182 -1183 -470 -1615 -642 -432 -171 -1056 -420 -1387 -551
l-602 -240 -52 27 c-118 59 -203 68 -285 30 -93 -43 -144 -136 -144 -265 0
-140 39 -227 223 -502 68 -103 132 -208 141 -235 41 -117 29 -251 -44 -510
-71 -250 -91 -407 -71 -574 10 -89 16 -104 91 -252 44 -87 80 -165 80 -174 0
-9 -49 -66 -109 -128 -124 -127 -136 -152 -129 -260 7 -101 32 -143 158 -266
60 -58 118 -121 129 -140 35 -59 28 -86 -51 -201 -39 -57 -77 -118 -85 -136
-29 -71 -4 -233 55 -349 37 -73 114 -182 177 -251 l47 -53 -74 0 c-89 0 -549
-27 -599 -35 l-36 -6 -6 73 c-7 72 -54 232 -83 276 -23 34 -66 29 -114 -15
-24 -21 -39 -42 -36 -50 3 -8 2 -12 -3 -9 -4 3 -21 -24 -36 -59 -25 -60 -96
-155 -115 -155 -5 0 -41 44 -81 98 -40 53 -87 113 -106 132 -18 19 -33 38 -33
42 0 11 -122 88 -140 88 -9 0 -25 -6 -36 -14 -17 -13 -19 -27 -19 -133 0 -65
4 -180 8 -255 8 -130 8 -138 -10 -138 -10 0 -50 -8 -90 -18 -82 -21 -83 -21
-83 54 0 24 -4 44 -10 44 -6 0 -10 45 -11 113 -1 61 -6 141 -13 177 -9 55 -14
65 -33 68 -17 2 -24 -3 -27 -20 -3 -13 -14 -72 -26 -133 -12 -60 -35 -155 -51
-210 -16 -55 -35 -116 -40 -136 -10 -33 -16 -37 -89 -61 l-78 -26 -49 35
c-104 74 -301 188 -363 209 -68 24 -90 20 -90 -17 0 -22 41 -110 106 -224 24
-44 47 -90 50 -102 6 -21 2 -23 -32 -25 -107 -4 -316 -28 -335 -39 -18 -9 -33
-54 -24 -69 3 -6 26 -21 51 -36 24 -14 44 -29 44 -34 0 -4 -17 -19 -37 -33
-62 -43 -169 -158 -208 -222 -69 -115 -91 -238 -61 -338 8 -26 11 -49 6 -52
-8 -5 44 -198 156 -570 189 -629 342 -1040 449 -1210 66 -103 104 -128 370
-242 189 -81 299 -139 375 -199 67 -52 124 -130 114 -154 -18 -42 -16 -107 5
-147 86 -169 463 -296 1056 -355 170 -17 738 -17 910 1 514 50 866 153 1007
292 50 50 74 110 64 160 -5 25 1 31 62 70 37 23 153 87 257 142 507 264 561
311 739 634 132 239 347 719 550 1230 128 322 132 335 146 428 22 150 -26 284
-148 416 -113 122 -302 248 -506 336 -66 29 -85 41 -80 53 3 8 14 64 25 123
20 120 15 151 -25 167 -30 11 -133 -21 -128 -40 1 -6 -2 -9 -8 -5 -5 3 -29 -9
-53 -28 -79 -65 -187 -107 -187 -74 -1 28 -31 222 -41 260 -6 23 -15 60 -21
82 -6 22 -13 42 -17 45 -3 3 -16 23 -27 45 -18 33 -28 40 -55 43 -31 2 -37 -3
-67 -47 -33 -49 -142 -281 -142 -304 -1 -7 -9 -22 -19 -34 -15 -18 -24 -20
-47 -14 -34 10 -34 9 16 126 21 50 38 97 37 106 0 8 21 57 47 109 26 51 56
120 67 153 20 59 20 62 2 75 -16 12 -21 9 -48 -24 -98 -123 -159 -191 -259
-294 -61 -63 -126 -133 -143 -155 l-32 -40 -16 39 c-9 21 -20 43 -26 50 -5 6
-31 56 -58 111 -64 130 -165 292 -219 349 -42 46 -74 57 -89 34 -4 -7 -8 -95
-8 -195 0 -100 -3 -185 -7 -189 -5 -4 -32 4 -60 18 -66 32 -256 107 -284 112
-14 3 -30 -4 -44 -19 -21 -22 -21 -24 -4 -56 9 -19 37 -65 61 -103 24 -37 43
-70 41 -72 -4 -4 -321 15 -325 20 -9 9 -95 396 -104 471 -15 118 -6 275 26
460 15 83 35 202 46 265 29 163 35 365 15 460 -21 97 -62 181 -126 252 -53 60
-159 142 -229 178 -30 15 -40 25 -33 33 182 227 271 458 328 853 22 149 24
464 5 579 -32 191 -94 344 -191 474 -33 43 -60 81 -60 84 0 2 17 7 38 10 20 3
280 50 577 106 499 93 1226 228 2430 451 264 49 847 157 1295 240 1228 228
1679 311 2080 386 201 37 366 68 368 69 3 2 41 497 42 539 0 11 -14 8 -635
-154 -60 -16 -200 -52 -310 -80 -110 -28 -249 -64 -310 -80 -60 -16 -810 -209
-1665 -430 -855 -221 -1613 -416 -1685 -435 -71 -19 -201 -52 -287 -74 -305
-79 -464 -120 -620 -160 -87 -23 -229 -59 -315 -82 -87 -22 -216 -55 -288 -74
-796 -206 -756 -197 -779 -181 -78 55 -117 35 396 199 625 201 598 192 1488
477 432 138 839 269 905 290 66 21 473 152 905 290 432 138 839 269 905 290
66 21 473 152 905 290 992 318 1021 327 1105 354 l70 22 3 79 c1 44 -1 168 -5
277 l-8 196 -345 -138z m-6585 -2599 c23 -9 15 -13 -125 -66 -129 -48 -100
-47 49 3 l141 47 45 -24 c25 -13 45 -27 45 -30 0 -4 -91 -30 -202 -59 -228
-58 -224 -59 54 -6 l196 37 48 -39 c134 -110 251 -294 295 -464 27 -107 37
-342 20 -486 -45 -380 -175 -705 -356 -889 -64 -65 -80 -99 -69 -153 5 -23 19
-35 78 -64 232 -115 374 -268 406 -438 13 -68 7 -139 -31 -346 -61 -336 -71
-423 -71 -589 0 -171 20 -327 68 -517 13 -53 24 -99 24 -102 0 -3 -47 -6 -104
-6 l-105 0 -123 134 c-142 155 -176 206 -224 340 l-34 97 59 77 c75 98 88 124
101 208 24 152 -8 232 -153 382 -122 126 -151 165 -142 191 3 10 43 52 88 92
97 88 103 94 122 138 20 44 19 167 -1 243 -8 34 -45 119 -80 191 -101 200
-102 233 -19 570 73 299 79 343 80 532 0 164 -1 172 -28 235 -15 36 -71 129
-125 208 -125 183 -194 298 -212 352 -13 39 -12 45 9 86 26 49 73 88 129 109
41 15 116 18 147 6z m2065 -3905 c0 -2 -8 -10 -17 -17 -16 -13 -17 -12 -4 4
13 16 21 21 21 13z m-50 -60 c0 -2 -8 -10 -17 -17 -16 -13 -17 -12 -4 4 13 16
21 21 21 13z m-2680 -60 c0 -3 -4 -8 -10 -11 -5 -3 -10 -1 -10 4 0 6 5 11 10
11 6 0 10 -2 10 -4z m-833 -78 c-3 -8 -6 -5 -6 6 -1 11 2 17 5 13 3 -3 4 -12
1 -19z m1873 -173 c11 -13 6 -21 -31 -52 -78 -64 -197 -194 -241 -262 -23 -36
-43 -67 -44 -69 -4 -6 -188 31 -197 38 -5 4 21 51 57 104 72 107 118 207 105
228 -7 10 11 14 84 19 193 11 254 10 267 -6z m269 -22 c6 -21 15 -62 22 -92
13 -61 17 -55 -65 -103 -45 -27 -65 -61 -52 -93 3 -8 39 -31 80 -49 l75 -34
-6 -59 c-6 -73 -27 -158 -53 -218 -11 -26 -20 -55 -20 -66 0 -18 -10 -19 -237
-19 -131 0 -276 -3 -322 -7 l-84 -6 6 54 c9 74 26 129 39 129 6 0 62 23 124
51 99 45 114 55 114 76 0 27 -29 42 -97 50 -24 3 -43 10 -43 15 0 16 204 213
273 263 67 49 67 49 67 97 l0 48 85 0 84 0 10 -37z m375 11 c9 -4 24 -20 32
-37 20 -37 13 -42 -73 -51 -36 -4 -75 -12 -85 -17 -11 -6 -40 -13 -65 -16 -24
-2 -63 -11 -85 -19 -22 -8 -42 -14 -43 -14 -1 0 -8 28 -14 63 -7 34 -15 73
-18 86 l-6 24 170 -6 c94 -4 178 -9 187 -13z m-1188 -15 c-32 -10 -64 -23 -71
-29 -12 -10 -128 -40 -155 -40 -10 0 -16 12 -17 34 l-3 34 63 6 c34 3 76 8 92
9 17 2 57 4 90 5 l60 1 -59 -20z m2172 -115 c8 -6 -63 -204 -73 -201 -5 2 -21
19 -34 38 l-24 34 7 -30 c5 -25 4 -27 -5 -11 -13 21 5 101 21 91 4 -3 16 17
25 45 16 48 17 49 48 43 18 -3 34 -7 35 -9z m-3174 -108 c9 -58 16 -114 16
-126 0 -24 -47 -80 -67 -80 -7 0 -18 -9 -25 -20 -18 -29 -62 -26 -87 6 -25 32
-28 19 -4 -16 17 -25 17 -25 -4 -7 -22 19 -39 77 -25 86 5 3 3 53 -3 111 -7
58 -11 107 -9 109 5 6 146 39 170 40 20 1 23 -8 38 -103z m-464 -13 c0 -5 -3
-18 -6 -30 -6 -22 -7 -22 -30 -5 -36 26 -33 29 29 41 4 0 7 -2 7 -6z m4583
-183 c313 -156 497 -338 526 -520 17 -108 10 -121 -144 -303 l-140 -166 -48
55 c-59 66 -144 128 -269 195 -51 28 -84 48 -73 45 84 -21 106 -24 155 -25 30
0 79 -3 107 -7 49 -6 53 -5 62 17 12 31 -2 46 -153 168 -65 53 -126 102 -134
109 -24 18 -18 23 118 94 137 72 203 150 150 178 -26 14 -197 48 -241 48 -40
0 -159 31 -159 42 0 4 16 39 35 78 41 84 22 85 208 -8z m-2217 52 c-3 -5 19
-14 48 -21 55 -12 156 -57 156 -70 0 -3 -43 -44 -95 -89 -52 -45 -111 -104
-132 -132 -20 -27 -38 -48 -39 -47 -2 1 6 34 17 72 11 39 22 115 25 170 6 103
9 125 19 125 4 0 4 -4 1 -8z m-3014 -204 c29 -18 59 -33 66 -34 8 -2 22 -10
33 -20 18 -16 18 -18 3 -36 -9 -10 -38 -31 -63 -48 -26 -16 -57 -43 -69 -60
-13 -17 -27 -28 -31 -25 -11 6 -107 -95 -149 -157 -42 -62 -50 -102 -26 -129
17 -19 26 -20 104 -14 47 4 103 11 125 17 68 17 153 27 179 20 l24 -7 -22 -59
c-19 -55 -27 -64 -92 -108 -39 -26 -99 -78 -134 -114 l-63 -65 -36 29 c-36 28
-148 177 -199 261 -22 38 -26 56 -26 127 0 75 3 89 38 158 42 86 125 181 218
251 33 25 62 45 64 45 2 0 27 -15 56 -32z m2252 -86 l-7 -80 -86 -6 c-47 -4
-111 -9 -141 -11 -55 -5 -56 -5 -99 39 -31 31 -40 47 -30 49 8 3 59 14 114 26
55 12 134 32 175 45 41 13 76 22 78 21 1 -1 0 -39 -4 -83z m1614 -99 c25 -21
55 -44 66 -51 19 -11 18 -12 -14 -7 -132 19 -174 25 -248 31 -45 4 -80 9 -77
12 9 9 169 50 199 51 19 1 44 -11 74 -36z m-2294 -31 c3 -5 -10 -8 -29 -8 -18
1 -31 4 -28 9 6 10 51 9 57 -1z"/>
<path d="M8149 7773 c-21 -28 -21 -31 -13 -228 5 -110 9 -254 9 -320 0 -109
-3 -125 -27 -177 -14 -31 -44 -73 -66 -95 -37 -35 -70 -56 -286 -182 -144 -84
-214 -175 -238 -311 -17 -99 2 -204 78 -428 54 -159 67 -212 72 -279 4 -75 2
-87 -22 -137 -31 -63 -78 -105 -181 -164 -79 -44 -98 -74 -75 -117 22 -41 55
-43 125 -6 187 96 285 239 285 412 0 97 -14 155 -81 330 -50 134 -79 243 -79
301 0 63 32 147 73 194 43 49 66 65 216 151 119 69 184 117 238 176 92 100
109 172 98 422 -5 99 -9 243 -10 319 -1 123 -4 140 -20 152 -31 23 -71 17 -96
-13z"/>
<path d="M3669 7651 c-22 -18 -24 -27 -25 -123 -1 -56 -7 -167 -14 -245 -16
-183 -10 -319 19 -396 45 -117 120 -186 354 -325 202 -120 250 -182 250 -322
1 -89 -14 -150 -83 -334 -28 -76 -58 -168 -66 -205 -48 -204 56 -392 282 -508
70 -36 72 -37 98 -20 21 14 26 25 26 57 0 42 -14 57 -99 100 -60 30 -135 103
-159 154 -46 97 -37 175 48 409 66 185 83 267 78 380 -11 203 -71 277 -358
438 -150 84 -222 152 -246 235 -15 52 -16 82 -8 249 5 105 9 246 9 314 -1 117
-2 124 -24 142 -29 24 -53 24 -82 0z"/>
<path d="M10224 6538 c-35 -40 -52 -73 -114 -223 -168 -406 -233 -462 -560
-480 -297 -16 -428 -78 -508 -237 -42 -83 -58 -151 -83 -340 -23 -185 -40
-254 -76 -321 -53 -96 -129 -134 -293 -144 -108 -6 -130 -18 -130 -69 0 -45
30 -64 100 -64 139 1 276 45 357 115 96 82 141 197 173 443 31 236 53 310 109
375 71 80 146 103 381 118 251 15 337 44 431 147 62 68 103 142 179 323 34 79
79 177 101 217 45 84 49 124 17 146 -31 22 -61 20 -84 -6z"/>
<path d="M1600 6410 c-28 -28 -25 -72 7 -123 14 -23 58 -116 97 -207 96 -223
139 -301 202 -364 58 -60 152 -111 229 -125 28 -5 114 -13 190 -16 215 -11
307 -37 371 -107 73 -80 100 -162 130 -398 21 -172 41 -255 76 -323 74 -138
228 -217 428 -217 69 0 82 3 100 22 11 12 20 34 20 48 0 44 -28 60 -102 60
-144 0 -258 42 -307 114 -42 60 -67 155 -96 361 -14 99 -31 201 -39 227 -40
128 -119 233 -210 278 -72 34 -140 49 -286 60 -296 23 -336 34 -415 122 -52
58 -77 104 -166 305 -63 143 -121 255 -147 286 -20 23 -57 22 -82 -3z"/>
<path d="M10383 4505 c-106 -29 -181 -81 -372 -258 -179 -168 -273 -211 -390
-181 -60 16 -108 44 -182 106 -51 41 -87 48 -111 21 -39 -46 -25 -87 52 -144
110 -83 207 -119 315 -119 133 1 227 51 403 214 181 168 267 226 358 241 83
13 198 -35 343 -144 200 -150 265 -181 379 -181 107 0 171 22 415 145 125 63
234 115 241 115 7 0 25 9 40 21 32 25 36 77 6 104 -30 27 -63 16 -305 -105
-245 -123 -313 -145 -420 -138 -87 6 -141 33 -304 152 -211 155 -321 190 -468
151z"/>
<path d="M1352 4379 c-74 -13 -166 -62 -322 -174 -169 -122 -203 -137 -300
-138 -103 -1 -173 23 -416 149 -219 113 -256 123 -294 82 -42 -45 -16 -94 63
-117 23 -7 119 -52 212 -101 272 -140 361 -167 493 -149 82 12 151 48 300 158
210 154 303 186 427 142 83 -29 144 -74 289 -211 177 -167 255 -214 374 -226
64 -7 156 12 237 50 68 31 175 113 186 143 15 41 -21 93 -66 93 -7 0 -41 -23
-76 -51 -96 -77 -159 -104 -244 -103 -105 1 -156 32 -372 231 -207 190 -335
248 -491 222z"/>
</g>
</svg>
